<?xml version="1.0" encoding="UTF-8" standalone="no" ?>
<!DOCTYPE svg PUBLIC "-//W3C//DTD SVG 1.1//EN" "http://www.w3.org/Graphics/SVG/1.1/DTD/svg11.dtd">
<svg xmlns="http://www.w3.org/2000/svg" xmlns:xlink="http://www.w3.org/1999/xlink" version="1.1" width="1280" height="1024" viewBox="0 0 1280 1024" xml:space="preserve">
<desc>Created with Fabric.js 5.3.0</desc>
<defs>
</defs>
<g transform="matrix(1 0 0 1 640 512)" id="background-logo"  >
<rect style="stroke: none; stroke-width: 0; stroke-dasharray: none; stroke-linecap: butt; stroke-dashoffset: 0; stroke-linejoin: miter; stroke-miterlimit: 4; fill: rgb(18,25,27); fill-rule: nonzero; opacity: 1;"  paint-order="stroke"  x="-640" y="-512" rx="0" ry="0" width="1280" height="1024" />
</g>
<g transform="matrix(1.9211538461538462 0 0 1.9211538461538462 639.9577346153844 641.3464099124311)" id="text-logo"  >
<g style=""  paint-order="stroke"   >
		<g transform="matrix(1 0 0 1 0 0)" id="text-logo-path-0"  >
<path style="stroke: none; stroke-width: 0.4680851063829785; stroke-dasharray: none; stroke-linecap: butt; stroke-dashoffset: 0; stroke-linejoin: miter; stroke-miterlimit: 4; fill: rgb(62,201,168); fill-rule: nonzero; opacity: 1;"  paint-order="stroke"  transform=" translate(-261.68999999999994, 15.399999999999999)" d="M 2.2 0 L 27.28 0 L 27.28 -6.16 L 9.68 -6.16 L 9.68 -30.8 L 2.2 -30.8 L 2.2 0 Z M 56.67 0.44 C 67.19 0.44 72.47 -4.66 72.47 -15.44 C 72.47 -26 67.54 -31.24 56.67 -31.24 C 46.07 -31.24 40.79 -26.31 40.79 -15.44 C 40.79 -4.84 45.76 0.44 56.67 0.44 Z M 48.27 -15.44 C 48.27 -21.91 50.91 -25.08 56.67 -25.08 C 62.17 -25.08 64.99 -22 64.99 -15.44 C 64.99 -8.93 62.44 -5.72 56.67 -5.72 C 51.04 -5.72 48.27 -8.76 48.27 -15.44 Z M 101.86 0.44 C 111.67 0.44 116.69 -3.04 116.91 -10.08 L 116.91 -16.24 L 102.78 -16.24 L 102.78 -10.08 L 109.38 -10.08 C 109.08 -7.17 105.73 -5.72 101.86 -5.72 C 96.18 -5.72 93.46 -8.62 93.46 -15.44 C 93.46 -22 96.01 -25.08 101.86 -25.08 C 106.13 -25.08 109.47 -23.76 109.47 -20.24 L 116.95 -20.24 C 116.42 -27.59 110.66 -31.24 101.86 -31.24 C 91.12 -31.24 85.98 -26.4 85.98 -15.44 C 85.98 -4.71 90.82 0.44 101.86 0.44 Z M 146.34 0.44 C 156.86 0.44 162.14 -4.66 162.14 -15.44 C 162.14 -26 157.21 -31.24 146.34 -31.24 C 135.74 -31.24 130.46 -26.31 130.46 -15.44 C 130.46 -4.84 135.43 0.44 146.34 0.44 Z M 137.94 -15.44 C 137.94 -21.91 140.58 -25.08 146.34 -25.08 C 151.84 -25.08 154.66 -22 154.66 -15.44 C 154.66 -8.93 152.11 -5.72 146.34 -5.72 C 140.71 -5.72 137.94 -8.76 137.94 -15.44 Z M 203.24 0 L 210.72 0 L 210.72 -24.64 L 220.4 -24.64 L 220.4 -30.8 L 193.56 -30.8 L 193.56 -24.64 L 203.24 -24.64 L 203.24 0 Z M 233.9 0 L 258.98 0 L 258.98 -6.16 L 241.38 -6.16 L 241.38 -12.32 L 254.58 -12.32 L 254.58 -18.48 L 241.38 -18.48 L 241.38 -24.64 L 258.98 -24.64 L 258.98 -30.8 L 233.9 -30.8 L 233.9 0 Z M 293.61 0 L 302.41 0 L 292.95 -16.28 L 301.53 -30.8 L 292.73 -30.8 L 287.36 -21.25 L 281.73 -30.8 L 273.37 -30.8 L 281.95 -16.28 L 272.49 0 L 281.29 0 L 287.45 -11.13 L 293.61 0 Z M 325.6 0 L 333.08 0 L 333.08 -24.64 L 342.76 -24.64 L 342.76 -30.8 L 315.92 -30.8 L 315.92 -24.64 L 325.6 -24.64 L 325.6 0 Z M 396.18 0 L 403.66 0 L 403.66 -30.8 L 396.18 -30.8 L 396.18 -18.48 L 381.66 -18.48 L 381.66 -30.8 L 374.18 -30.8 L 374.18 0 L 381.66 0 L 381.66 -12.32 L 396.18 -12.32 L 396.18 0 Z M 417.16 0 L 442.24 0 L 442.24 -6.16 L 424.64 -6.16 L 424.64 -12.32 L 437.84 -12.32 L 437.84 -18.48 L 424.64 -18.48 L 424.64 -24.64 L 442.24 -24.64 L 442.24 -30.8 L 417.16 -30.8 L 417.16 0 Z M 455.75 0 L 463.23 0 L 463.23 -10.12 L 468.82 -10.12 L 474.67 0 L 482.59 0 L 476.34 -10.82 C 480.13 -12.14 482.02 -15.4 482.02 -20.55 C 482.02 -27.37 478.59 -30.8 471.72 -30.8 L 455.75 -30.8 L 455.75 0 Z M 463.23 -16.28 L 463.23 -24.64 L 471.68 -24.64 C 473.48 -24.64 474.54 -23.28 474.54 -20.5 C 474.54 -17.69 473.57 -16.28 471.68 -16.28 L 463.23 -16.28 Z M 496.1 0 L 521.18 0 L 521.18 -6.16 L 503.58 -6.16 L 503.58 -12.32 L 516.78 -12.32 L 516.78 -18.48 L 503.58 -18.48 L 503.58 -24.64 L 521.18 -24.64 L 521.18 -30.8 L 496.1 -30.8 L 496.1 0 Z" stroke-linecap="round" />
</g>
</g>
</g>
<g transform="matrix(1.9211538461538462 0 0 1.9211538461538462 640.0278567307693 722.5245940169883)" id="tagline-c349782e-9ba2-4d7a-a88f-99e086d1d059-logo"  >
<g style=""  paint-order="stroke"   >
		<g transform="matrix(1 0 0 1 0 0)" id="tagline-c349782e-9ba2-4d7a-a88f-99e086d1d059-logo-path-0"  >
<path style="stroke: none; stroke-width: 0.47593618364653034; stroke-dasharray: none; stroke-linecap: butt; stroke-dashoffset: 0; stroke-linejoin: miter; stroke-miterlimit: 4; fill: rgb(62,201,168); fill-rule: nonzero; opacity: 1;"  paint-order="stroke"  transform=" translate(-170.89499999999998, 10.15)" d="M 10.59 0.29 C 15.43 0.29 17.98 -0.75 19 -2.64 C 19.49 -3.57 19.75 -4.81 19.75 -6.32 C 19.75 -10.27 17.92 -12.18 12.79 -12.18 L 10.59 -12.18 C 8.55 -12.18 7.4 -12.18 6.82 -12.76 C 6.55 -13.02 6.41 -13.49 6.41 -14.12 C 6.41 -15.43 6.76 -16.04 7.95 -16.33 C 8.55 -16.47 9.43 -16.53 10.61 -16.53 C 12.33 -16.53 13.2 -16.39 13.78 -15.49 C 14.07 -15.05 14.21 -14.36 14.21 -13.46 L 19.17 -13.46 C 19.17 -18.79 16.27 -20.59 10.61 -20.59 C 5.77 -20.59 3.25 -19.55 2.23 -17.66 C 1.71 -16.73 1.45 -15.49 1.45 -13.98 C 1.45 -10.03 3.28 -8.12 8.41 -8.12 L 10.59 -8.12 C 12.53 -8.12 13.78 -8 14.38 -7.42 C 14.65 -7.13 14.79 -6.73 14.79 -6.18 C 14.79 -4.87 14.47 -4.29 13.28 -4 C 12.64 -3.83 11.77 -3.77 10.59 -3.77 C 8.5 -3.77 7.48 -3.92 6.87 -4.81 C 6.55 -5.25 6.41 -5.92 6.41 -6.84 L 1.45 -6.84 C 1.45 -3.16 2.84 -1.22 5.54 -0.35 C 6.87 0.09 8.53 0.29 10.59 0.29 Z M 40.05 0 L 44.98 0 L 44.98 -20.3 L 40.05 -20.3 L 40.05 0 Z M 78.62 0 L 84.71 0 L 84.71 -20.3 L 79.78 -20.3 L 79.78 -6.29 L 71.37 -20.3 L 65.28 -20.3 L 65.28 0 L 70.21 0 L 70.21 -14.01 L 78.62 0 Z M 115.48 0.29 C 122.09 0.29 125.4 -2.12 125.4 -6.93 L 120.47 -6.93 C 120.47 -4.84 118.15 -3.77 115.48 -3.77 C 111.74 -3.77 109.94 -5.68 109.94 -10.18 C 109.94 -14.5 111.62 -16.53 115.48 -16.53 C 118.29 -16.53 120.5 -15.66 120.5 -13.34 L 125.42 -13.34 C 125.08 -18.18 121.28 -20.59 115.48 -20.59 C 108.4 -20.59 105.01 -17.4 105.01 -10.18 C 105.01 -3.1 108.2 0.29 115.48 0.29 Z M 145.72 0 L 162.25 0 L 162.25 -4.06 L 150.66 -4.06 L 150.66 -8.12 L 159.36 -8.12 L 159.36 -12.18 L 150.66 -12.18 L 150.66 -16.24 L 162.25 -16.24 L 162.25 -20.3 L 145.72 -20.3 L 145.72 0 Z M 205.78 -4.06 L 205.76 0 L 223.47 0 L 223.47 -4.06 L 210.74 -4.06 C 210.86 -6.35 211.76 -7.25 214.34 -7.25 L 216.51 -7.25 C 221.65 -7.25 223.47 -9.16 223.47 -13.11 L 223.47 -13.98 C 223.47 -16.99 222.63 -18.82 219.94 -19.84 C 218.63 -20.33 216.72 -20.59 214.31 -20.59 C 208.66 -20.59 205.76 -18.79 205.76 -13.46 L 210.71 -13.46 C 210.71 -15.28 211.32 -16.1 212.31 -16.36 C 212.8 -16.47 213.47 -16.53 214.31 -16.53 C 216.43 -16.53 217.73 -16.33 218.2 -15.6 C 218.4 -15.28 218.52 -14.79 218.52 -14.12 L 218.52 -13.25 C 218.52 -11.98 217.96 -11.51 216.92 -11.4 C 216.4 -11.34 215.53 -11.31 214.34 -11.31 L 212.72 -11.31 C 208.22 -11.31 205.99 -9.11 205.78 -4.06 Z M 253.66 0.29 C 260.3 0.29 263.49 -2.9 263.49 -10.18 C 263.49 -17.26 260.51 -20.59 253.66 -20.59 C 246.96 -20.59 243.77 -17.4 243.77 -10.18 C 243.77 -3.1 246.79 0.29 253.66 0.29 Z M 248.7 -10.18 C 248.7 -14.5 250.18 -16.53 253.66 -16.53 C 257 -16.53 258.56 -14.59 258.56 -10.18 C 258.56 -5.86 257.06 -3.77 253.66 -3.77 C 250.3 -3.77 248.7 -5.74 248.7 -10.18 Z M 283.82 -4.06 L 283.79 0 L 301.51 0 L 301.51 -4.06 L 288.78 -4.06 C 288.9 -6.35 289.8 -7.25 292.38 -7.25 L 294.55 -7.25 C 299.69 -7.25 301.51 -9.16 301.51 -13.11 L 301.51 -13.98 C 301.51 -16.99 300.67 -18.82 297.98 -19.84 C 296.67 -20.33 294.76 -20.59 292.35 -20.59 C 286.69 -20.59 283.79 -18.79 283.79 -13.46 L 288.75 -13.46 C 288.75 -15.28 289.36 -16.1 290.35 -16.36 C 290.84 -16.47 291.51 -16.53 292.35 -16.53 C 294.47 -16.53 295.77 -16.33 296.24 -15.6 C 296.44 -15.28 296.55 -14.79 296.55 -14.12 L 296.55 -13.25 C 296.55 -11.98 296 -11.51 294.96 -11.4 C 294.44 -11.34 293.57 -11.31 292.38 -11.31 L 290.75 -11.31 C 286.26 -11.31 284.03 -9.11 283.82 -4.06 Z M 330.51 0.29 C 337.15 0.29 340.34 -1.59 340.34 -5.86 C 340.34 -8.15 339.47 -9.71 337.53 -10.73 C 338.75 -11.66 339.36 -13.05 339.36 -14.88 C 339.36 -18.73 336.66 -20.59 330.51 -20.59 C 326.34 -20.59 324.07 -19.75 323.06 -17.89 C 322.54 -16.96 322.28 -15.75 322.25 -14.15 L 327.24 -14.15 C 327.26 -15.34 327.44 -15.95 328.4 -16.3 C 328.83 -16.44 329.56 -16.53 330.51 -16.53 C 333.18 -16.53 334.43 -15.95 334.43 -14.56 C 334.43 -13.37 333.96 -12.85 332.86 -12.64 C 332.34 -12.56 331.53 -12.5 330.51 -12.5 L 330.51 -8.82 C 332.8 -8.82 334.14 -8.79 334.89 -8.03 C 335.24 -7.69 335.41 -7.11 335.41 -6.32 C 335.41 -4.58 333.91 -3.77 330.51 -3.77 C 328.57 -3.77 327.61 -4.15 327.18 -4.96 C 326.95 -5.37 326.83 -5.92 326.8 -6.58 L 321.81 -6.58 C 321.84 -3.39 322.74 -1.48 325.26 -0.46 C 326.51 0.03 328.28 0.29 330.51 0.29 Z" stroke-linecap="round" />
</g>
</g>
</g>
<g transform="matrix(1.9211538461538462 0 0 1.9211538461538462 640 425.10894082198956)" id="tagline-83fdfb2a-8044-4ad8-b129-1c6be14b1c43-logo"  >
<g style=""  paint-order="stroke"   >
		<g transform="matrix(1 0 0 1 0 0)" id="tagline-83fdfb2a-8044-4ad8-b129-1c6be14b1c43-logo-path-0"  >
<linearGradient id="SVGID_194574" gradientUnits="userSpaceOnUse" gradientTransform="matrix(1 0 0 1 7.75 -108.5)"  x1="-7.75" y1="-27.766699999999986" x2="-7.75" y2="147.2333">
<stop offset="0%" style="stop-color:rgb(66,230,149);stop-opacity: 1"/>
<stop offset="100%" style="stop-color:rgb(59,178,184);stop-opacity: 1"/>
</linearGradient>
<path style="stroke: rgb(255,255,255); stroke-width: 0; stroke-dasharray: none; stroke-linecap: butt; stroke-dashoffset: 0; stroke-linejoin: miter; stroke-miterlimit: 4; fill: url(#SVGID_194574); fill-rule: nonzero; opacity: 1;"  paint-order="stroke"  transform=" translate(-51.925, 54.25)" d="M 7.75 0 L 96.1 0 L 96.1 -21.7 L 34.1 -21.7 L 34.1 -108.5 L 7.75 -108.5 L 7.75 0 Z" stroke-linecap="round" />
</g>
</g>
</g>
</svg>